<?xml version="1.0" encoding="utf-8"?>
<!-- Generator: Adobe Illustrator 27.8.0, SVG Export Plug-In . SVG Version: 6.00 Build 0)  -->
<svg version="1.1"
	 id="svg41186" xmlns:dc="http://purl.org/dc/elements/1.1/" xmlns:sodipodi="http://sodipodi.sourceforge.net/DTD/sodipodi-0.dtd" xmlns:inkscape="http://www.inkscape.org/namespaces/inkscape" xmlns:rdf="http://www.w3.org/1999/02/22-rdf-syntax-ns#" xmlns:svg="http://www.w3.org/2000/svg" xmlns:cc="http://creativecommons.org/ns#"
	 xmlns="http://www.w3.org/2000/svg" xmlns:xlink="http://www.w3.org/1999/xlink" x="0px" y="0px" viewBox="0 0 64 64"
	 style="enable-background:new 0 0 64 64;" xml:space="preserve">
<style type="text/css">
	.st0{fill:#FFFFFF;}
</style>
<sodipodi:namedview  bordercolor="#666666" borderopacity="1.0" id="base" inkscape:current-layer="layer1" inkscape:cx="24.50424" inkscape:cy="33.394095" inkscape:document-units="mm" inkscape:pageopacity="0.0" inkscape:pageshadow="2" inkscape:window-height="1030" inkscape:window-maximized="0" inkscape:window-width="1898" inkscape:window-x="10" inkscape:window-y="38" inkscape:zoom="4" pagecolor="#ffffff" showgrid="false" units="px">
	</sodipodi:namedview>
<g>
	<path class="st0" d="M45,33.8c-2.5,0-4.6-0.7-6.6-1.7c-1.4-0.7-2.8-1.5-4.1-2.3c-0.6-0.3-1.1-0.4-1.6-0.1c-0.6,0.4-1.1,0.9-1.6,1.4
		c-0.6,0.6-0.6,1.4-0.2,2.2c1.3,2.1,2.1,4.4,2.8,6.7c0.9,3.4,0.1,6.4-1.9,9.3c-2.5,3.6-5.6,6.5-9.5,8.6c-1.1,0.6-2.4,0.9-3.7,1.2
		c-1.6,0.3-3.1-0.3-4.5-1.2c-1.7-1.2-3.3-2.5-5.1-3.6c-0.6-0.4-1.3-0.6-1.9-0.9c-0.1,0-0.2,0-0.3-0.1c-1-0.3-3.4-2.9-3.5-3.9
		c-0.2-1,0.2-1.8,0.8-2.5c1.9-2.2,3.7-4.4,5.7-6.5c2.9-3,6.2-5.6,9.6-8.1c1.4-1,3-1.7,4.7-2.2c0.9-0.3,1.8-0.6,2.7-0.9
		c2.2-0.8,3.4-2.4,4.3-4.5c0.9-2.1,1.6-4.3,3.1-6.1c1.6-1.8,3.2-3.6,4.8-5.3c3.3-3.4,7-6.5,11.1-9c1.6-1,2.8-0.8,4.1,0.6
		C54.6,5.2,55,5.6,55.3,6c0.6,0.6,0.9,1.3,1,2.1c0.1,0.6,0.4,1.3,0.8,1.8c1,1.7,2.1,3.3,3.1,4.9c1.7,2.8,1.4,5.6-0.3,8.2
		c-2.6,4-5.9,7.1-10.1,9.3C48.2,33.2,46.6,33.8,45,33.8z M18.8,56.2c1.2,0,2.3-0.4,3.4-1c3.1-1.6,5.6-3.9,7.5-6.8
		c1.5-2.4,2.3-4.9,1.5-7.7c-0.7-2.7-1.8-5.2-3.8-7.2c-0.8-0.8-1.7-1.1-2.7-0.7c-0.8,0.3-1.7,0.6-2.4,1c-2.6,1.4-4.9,3.2-7.1,5.1
		c-1.9,1.6-3.7,3.2-5.2,5.2c-1.6,2.1-1.7,4.1-0.3,6.3c1.1,1.9,2.7,3.3,4.6,4.5C15.6,55.7,17,56.3,18.8,56.2z M45.3,31.2
		c0.7-0.2,1.9-0.4,3.1-0.8c3.8-1.6,6.7-4.3,8.9-7.8c0.9-1.5,1.4-3.1,1-4.9c-0.8-3.5-2.8-6.2-5.8-8.2c-1.6-1-3.2-1-4.8-0.2
		c-0.8,0.4-1.6,0.9-2.4,1.5c-3.1,2.5-5.9,5.4-8.3,8.5c-1,1.3-1.7,2.7-2.5,4.1c-0.5,1-0.3,1.9,0.4,2.7c0.9,1.1,2.1,2,3.3,2.7
		C40.3,30.2,42.3,31.1,45.3,31.2z"/>
</g>
</svg>
