<?xml version="1.0" encoding="utf-8"?>
<!-- Generator: Adobe Illustrator 27.8.0, SVG Export Plug-In . SVG Version: 6.00 Build 0)  -->
<svg version="1.1" id="Layer_1" xmlns="http://www.w3.org/2000/svg" xmlns:xlink="http://www.w3.org/1999/xlink" x="0px" y="0px"
	 viewBox="0 0 682.7 682.7" style="enable-background:new 0 0 682.7 682.7;" xml:space="preserve">
<style type="text/css">
	.st0{fill:#FFFFFF;stroke:#000000;stroke-width:12;stroke-miterlimit:10;}
</style>
<g>
	<path class="st0" d="M478.2,367.8c-33-0.9-62-14-90.4-29.1c-8.6-4.6-17-10-25.1-15.5c-6.3-4.3-12.6-4.9-18.6-0.8
		c-6.2,4.3-12.2,9.1-17.3,14.7c-7.8,8.6-8,15.2-2.1,25.5c13.9,24.2,24.1,49.9,31,77c9.8,37.9,0,71.4-21.5,102.5
		c-27.5,39.9-62.8,71.4-104.6,95.8c-13,7.6-27.1,11.5-41.8,13.7c-18.7,2.8-35.2-3.5-50.1-13.7c-19.1-13-37.5-26.9-56-40.7
		c-7-5.2-14.2-9.7-23.3-10.1c-1.5-0.1-3.1-0.2-4.3-0.9c-16.4-10.4-30.9-23.1-37.9-41.5c-4-10.6,0.7-21.1,7.8-29.5
		c21.4-25,42.3-50.5,65-74.3c32-33.8,68.5-62.7,106.1-90.1c16-11.7,34-19.6,53.1-25.1c9.9-2.8,19.4-6.8,29.2-10.1
		c25.2-8.5,39.5-27.3,48.9-50.8c9.6-23.9,18-48.7,35.3-68.5c17.4-20,35.4-39.6,53.8-58.7c37.6-38.8,78.7-73.5,124.8-102
		c17.6-10.9,31.4-8.9,45.3,6.3c4.3,4.7,8.6,9.5,13,14.1c6.1,6.4,9.3,13.7,10.5,22.9c0.9,7.2,4.6,14.4,8.4,20.8
		c11.3,19,23.6,37.4,35.1,56.3c18.8,30.8,15.2,61.5-3.4,90.4c-29,45-66.9,81-114.7,105.9C516.9,361.4,498.5,368.3,478.2,367.8z
		 M188.4,620c12.2,0.7,25.3-4.1,37.5-10.5c35.1-18.3,63.9-44,85.1-77.6c16.7-26.5,24.8-55,16.3-86.5c-8.1-30.3-19.7-58.6-42.5-81.3
		c-8.6-8.6-18.2-11.6-29.5-7.8c-9.5,3.2-19.5,6.1-27.8,11.4c-21.5,13.8-43,27.7-62.9,43.5c-27.1,21.5-53.8,43.8-74.9,71.8
		c-17.9,23.8-19,46-3.7,71.1c12.7,20.8,30.3,36.6,50.6,49.7C151.8,613.5,168,620,188.4,620z M485.4,339.2c7.6-2,22.2-4,35.3-9.4
		c42.8-17.6,74.9-48,98.9-87.1c10.3-16.8,15.9-35.2,11.5-54.9c-8.8-39.8-31.3-70.4-65.7-92.1c-17-10.7-34.9-11.3-52.5-1.9
		c-9.5,5-18.9,10.7-27.2,17.5c-34.8,28.4-66.2,60.2-93.4,95.9c-10.8,14.1-19.2,30.2-27.6,45.9c-6.1,11.2-3.8,21.9,4.8,31.9
		c10.6,12.3,22.8,22.4,36.9,30.1C429.1,327.2,452.2,338,485.4,339.2z"/>
</g>
</svg>
